<svg width="24" height="24" viewBox="0 0 24 24" fill="none" xmlns="http://www.w3.org/2000/svg">
<path d="M10.1289 15.6225V23.9843C5.94759 23.6011 0.437236 19.6041 0.025319 12.8614C-0.125602 10.5266 0.400564 8.19782 1.53987 6.15831C2.67919 4.11881 4.38261 2.45645 6.44306 1.37295C8.50352 0.289464 10.8323 -0.168273 13.1464 0.0552526C15.4605 0.278778 17.6603 1.17371 19.4784 2.63184C21.2965 4.08997 22.6546 6.04818 23.3877 8.26855C24.1208 10.4889 24.1973 12.876 23.608 15.1393C23.0186 17.4026 21.7886 19.4448 20.0677 21.0178C18.3468 22.5908 16.2089 23.6268 13.9139 24V15.6462H16.673L17.217 12.1418H13.844C13.8906 11.1249 13.844 10.1548 13.9994 9.20049C14.0855 8.83665 14.2982 8.51598 14.5991 8.29643C14.8999 8.07687 15.269 7.97312 15.6393 8.00386C15.9191 8.00386 16.1989 8.00386 16.4864 8.00386H17.3336V5.0079C15.9983 4.72253 14.6209 4.69875 13.2766 4.93763C12.3678 5.15989 11.5627 5.69016 10.9966 6.43942C10.4304 7.18869 10.1378 8.1111 10.1678 9.05191C10.1678 10.061 10.1678 11.0624 10.1678 12.1262H7.14451V15.6381L10.1289 15.6225Z" fill="white"/>
</svg>
