<svg width="24" height="25" viewBox="0 0 24 25" fill="none" xmlns="http://www.w3.org/2000/svg">
<path d="M12.0385 6.32146H14.7976C15.5644 6.32146 16.2998 6.62793 16.842 7.17306C17.3842 7.71819 17.6887 8.45749 17.6887 9.22842C17.6887 11.096 17.6887 12.9634 17.6887 14.831C17.6929 15.2163 17.6206 15.5985 17.4761 15.9554C17.3316 16.3123 17.1178 16.6368 16.8471 16.9096C16.5765 17.1824 16.2544 17.3982 15.8999 17.5445C15.5453 17.6907 15.1653 17.7643 14.782 17.7612C12.9219 17.7612 11.0644 17.7612 9.20952 17.7612C8.82628 17.7654 8.44607 17.6928 8.09111 17.5475C7.73614 17.4023 7.41355 17.1871 7.14219 16.915C6.87082 16.6428 6.65612 16.3191 6.51066 15.9626C6.3652 15.6061 6.2919 15.2243 6.29502 14.839C6.29502 12.9741 6.29502 11.1066 6.29502 9.23643C6.295 8.85104 6.37101 8.46923 6.51863 8.11356C6.66626 7.75789 6.88255 7.43534 7.15504 7.16428C7.42754 6.89322 7.75078 6.67898 8.1061 6.53436C8.46141 6.38974 8.84172 6.31732 9.22503 6.32146H12.0385ZM12.0385 8.56416C11.3536 8.56879 10.6854 8.77747 10.1183 9.16356C9.55118 9.54965 9.11054 10.0959 8.85199 10.7336C8.59343 11.3713 8.52856 12.0715 8.66556 12.7462C8.80256 13.4209 9.13532 14.0399 9.62179 14.5246C10.1083 15.0093 10.7266 15.3384 11.3989 15.4701C12.0712 15.6018 12.7672 15.53 13.3991 15.2644C14.031 14.9988 14.5704 14.5511 14.9493 13.9775C15.3283 13.4038 15.5297 12.7301 15.5282 12.0415C15.5292 11.5826 15.4397 11.1281 15.2648 10.7042C15.0899 10.2803 14.8331 9.89559 14.5092 9.57219C14.1854 9.24878 13.801 8.99316 13.3782 8.82017C12.9554 8.64718 12.5027 8.56002 12.0463 8.56416H12.0385ZM15.6913 9.16585C15.9071 9.17056 16.1165 9.09244 16.2768 8.94722C16.4371 8.80201 16.5363 8.60066 16.5541 8.38445C16.5586 8.16837 16.4806 7.95871 16.336 7.79878C16.1913 7.63886 15.9912 7.5408 15.7769 7.52484C15.6622 7.51049 15.5457 7.52043 15.435 7.55383C15.3243 7.58724 15.2218 7.64356 15.1339 7.71904C15.046 7.79453 14.9748 7.88751 14.9247 7.99223C14.8746 8.09694 14.8468 8.21108 14.843 8.32722C14.8392 8.44336 14.8595 8.55899 14.9027 8.66679C14.9458 8.77459 15.0108 8.87221 15.0936 8.95333C15.1763 9.03445 15.275 9.09735 15.3833 9.13799C15.4916 9.17864 15.6071 9.19625 15.7225 9.1895L15.6913 9.16585Z" fill="white"/>
<path d="M12.0389 0.000124498C14.4096 0.00784767 16.725 0.721565 18.6927 2.05091C20.6605 3.38025 22.1925 5.26571 23.0954 7.46956C23.9984 9.67341 24.2319 12.0967 23.7664 14.4338C23.3009 16.7709 22.1572 18.9171 20.4798 20.6014C18.8024 22.2858 16.6663 23.433 14.3411 23.898C12.016 24.363 9.60591 24.1249 7.41506 23.2142C5.22421 22.3035 3.35077 20.7608 2.03111 18.7807C0.711444 16.8006 0.00468217 14.472 6.34106e-05 12.0885C-0.00508159 10.4983 0.302913 8.92274 0.906291 7.45277C1.50967 5.98281 2.39649 4.64739 3.51563 3.52366C4.63477 2.39993 5.96412 1.50988 7.42696 0.90514C8.88981 0.300404 10.4573 -0.00710282 12.0389 0.000124498ZM11.9767 4.99336C11.083 4.99336 10.197 4.99336 9.31095 4.99336C8.74751 4.97341 8.18585 5.06763 7.6595 5.27074C7.13314 5.47384 6.65285 5.78155 6.24736 6.17537C5.84187 6.5692 5.51947 7.04117 5.29939 7.56304C5.0793 8.0849 4.96603 8.64598 4.96638 9.21282C4.96638 11.1741 4.91975 13.12 4.96638 15.097C4.99986 16.1672 5.43981 17.1837 6.1958 17.9379C6.95178 18.6922 7.96638 19.1269 9.03113 19.1524C11 19.1836 12.9664 19.1836 14.9301 19.1524C15.9872 19.1296 16.9961 18.7033 17.7523 17.9604C18.5086 17.2175 18.9555 16.2135 19.0026 15.1515C19.057 13.0964 19.0492 11.0413 19.0026 8.98619C18.9597 7.97256 18.5482 7.01026 17.8463 6.28144C17.1443 5.55262 16.2007 5.10793 15.1944 5.03227C14.1296 4.94632 13.0493 4.99336 11.9767 4.99336Z" fill="white"/>
<path d="M12.0548 14.2467C11.766 14.2487 11.4796 14.1937 11.2119 14.0845C10.9443 13.9753 10.7007 13.8141 10.495 13.6103C10.2894 13.4064 10.1256 13.1635 10.0132 12.896C9.90076 12.6285 9.84188 12.3413 9.83984 12.0509C9.85169 11.4653 10.0878 10.9072 10.499 10.4923C10.9102 10.0774 11.4647 9.83819 12.0471 9.82422C12.63 9.8323 13.1867 10.0687 13.599 10.4831C14.0112 10.8976 14.2463 11.4572 14.2543 12.0433C14.2554 12.3336 14.1991 12.6212 14.0889 12.8895C13.9786 13.1578 13.8165 13.4015 13.6119 13.6064C13.4074 13.8114 13.1644 13.9735 12.8972 14.0834C12.6299 14.1933 12.3436 14.2487 12.0548 14.2467Z" fill="white"/>
</svg>
