<svg width="24" height="25" viewBox="0 0 24 25" fill="none" xmlns="http://www.w3.org/2000/svg">
<path d="M23.9079 12.0674C23.9094 14.4457 23.2091 16.771 21.8955 18.749C20.5818 20.727 18.7141 22.2688 16.5285 23.179C14.343 24.0891 11.938 24.3267 9.61804 23.8619C7.29806 23.3972 5.16741 22.2509 3.49577 20.568C1.82413 18.8852 0.686689 16.7418 0.22744 14.4086C-0.231809 12.0755 0.00777223 9.65764 0.915872 7.4615C1.82397 5.26536 3.35974 3.38944 5.32877 2.0713C7.29781 0.753151 9.61159 0.0520456 11.9772 0.0566633C13.5455 0.0556371 15.0987 0.365598 16.5477 0.969022C17.9966 1.57245 19.3129 2.45745 20.4212 3.57316C21.5295 4.68886 22.408 6.01342 23.0063 7.471C23.6046 8.92858 23.911 10.4905 23.9079 12.0674ZM13.0294 17.295V16.7659C13.0294 15.7546 13.0294 14.7358 13.0294 13.7246C13.0282 13.2899 13.0907 12.8571 13.2151 12.4407C13.311 12.1804 13.4962 11.9631 13.7373 11.8277C13.9783 11.6922 14.2596 11.6476 14.5304 11.702C14.7738 11.7122 15.0052 11.8108 15.1816 11.9796C15.3581 12.1484 15.4676 12.3758 15.4898 12.6196C15.5488 12.9246 15.5773 13.2346 15.575 13.5453C15.575 14.7899 15.575 16.0346 15.575 17.287H17.8961C17.8961 15.9724 17.8961 14.6966 17.8961 13.3975C17.8991 12.8774 17.8681 12.3577 17.8033 11.8417C17.7693 11.2309 17.498 10.6582 17.0479 10.2464C16.5979 9.8347 16.005 9.61722 15.397 9.6406C14.9276 9.59573 14.4547 9.67534 14.0256 9.87192C13.5965 10.0685 13.2264 10.3751 12.9521 10.7607L12.8902 9.86585H10.7083V17.3026L13.0294 17.295ZM6.97892 9.84268V17.295H9.24592V9.84268H6.97892ZM8.12406 8.81599C8.30892 8.83011 8.49466 8.80562 8.66969 8.7442C8.84472 8.68277 9.00526 8.58565 9.14122 8.45895C9.27719 8.33224 9.38566 8.17852 9.45984 8.0077C9.53402 7.83689 9.57228 7.65245 9.57228 7.46606C9.57228 7.27967 9.53402 7.09524 9.45984 6.92442C9.38566 6.7536 9.27719 6.60027 9.14122 6.47356C9.00526 6.34685 8.84472 6.24973 8.66969 6.1883C8.49466 6.12688 8.30892 6.1024 8.12406 6.11652C7.93921 6.1024 7.75342 6.12688 7.57839 6.1883C7.40336 6.24973 7.24282 6.34685 7.10685 6.47356C6.97089 6.60027 6.86241 6.7536 6.78823 6.92442C6.71406 7.09524 6.67579 7.27967 6.67579 7.46606C6.67579 7.65245 6.71406 7.83689 6.78823 8.0077C6.86241 8.17852 6.97089 8.33224 7.10685 8.45895C7.24282 8.58565 7.40336 8.68277 7.57839 8.7442C7.75342 8.80562 7.93921 8.83011 8.12406 8.81599Z" fill="white"/>
</svg>
